<svg id="Grupo_658" data-name="Grupo 658" xmlns="http://www.w3.org/2000/svg" xmlns:xlink="http://www.w3.org/1999/xlink" width="118.789" height="19.689" viewBox="0 0 118.789 19.689">
  <defs>
    <clipPath id="clip-path">
      <rect id="Rect치ngulo_529" data-name="Rect치ngulo 529" width="118.789" height="19.689" transform="translate(0 0)" fill="#616161"/>
    </clipPath>
  </defs>
  <g id="Grupo_657" data-name="Grupo 657" transform="translate(0 0)" clip-path="url(#clip-path)">
    <path id="Trazado_83" data-name="Trazado 83" d="M15.581,16.443l.826.732a9.495,9.495,0,0,1-6.6,2.547,9.455,9.455,0,0,1-6.943-2.866A9.454,9.454,0,0,1,0,9.912a9.469,9.469,0,0,1,2.866-6.93A9.435,9.435,0,0,1,9.809.1a9.465,9.465,0,0,1,6.6,2.561l-.826.732A8.437,8.437,0,0,0,9.809,1.214,8.4,8.4,0,0,0,3.652,3.761,8.368,8.368,0,0,0,1.1,9.912a8.385,8.385,0,0,0,2.554,6.164,8.4,8.4,0,0,0,6.158,2.548,8.437,8.437,0,0,0,5.772-2.182" transform="translate(0 -0.033)" fill="#616161"/>
    <path id="Trazado_84" data-name="Trazado 84" d="M26.873,4.887a6.325,6.325,0,0,1,4.654,1.924,6.36,6.36,0,0,1,1.917,4.661,6.349,6.349,0,0,1-1.917,4.64,6.559,6.559,0,0,1-9.295,0,6.327,6.327,0,0,1-1.931-4.64,6.338,6.338,0,0,1,1.931-4.661,6.337,6.337,0,0,1,4.641-1.924M23.032,7.624a5.258,5.258,0,0,0-1.592,3.848,5.424,5.424,0,0,0,5.433,5.419,5.424,5.424,0,0,0,5.433-5.419,5.256,5.256,0,0,0-1.592-3.848,5.413,5.413,0,0,0-7.682,0" transform="translate(-6.442 -1.551)" fill="#616161"/>
    <path id="Trazado_85" data-name="Trazado 85" d="M60.638,10.861a4.378,4.378,0,0,0-.04.61,5.433,5.433,0,0,0,9.281,3.821q.271-.271.515-.569l1.152.406a5.727,5.727,0,0,1-.853.976,6.557,6.557,0,0,1-9.3.007,6.325,6.325,0,0,1-1.931-4.64A6.333,6.333,0,0,1,61.391,6.81a6.582,6.582,0,0,1,9.3,0,5.556,5.556,0,0,1,1.693,4.051Zm.2-1.1H71.166a5.108,5.108,0,0,0-1.287-2.141,5.43,5.43,0,0,0-7.7,0,5.525,5.525,0,0,0-1.341,2.141" transform="translate(-18.868 -1.551)" fill="#616161"/>
    <path id="Trazado_86" data-name="Trazado 86" d="M90.938,14.872l1.138.42a7.3,7.3,0,0,1-.7.813,6.559,6.559,0,0,1-9.3.007,6.343,6.343,0,0,1-1.931-4.654,6.322,6.322,0,0,1,1.931-4.648,6.583,6.583,0,0,1,9.3,0,7.3,7.3,0,0,1,.7.813l-1.138.42q-.176-.216-.38-.433a5.433,5.433,0,0,0-9.267,3.848A5.233,5.233,0,0,0,82.884,15.3a5.413,5.413,0,0,0,7.675-.007,5.318,5.318,0,0,0,.38-.42" transform="translate(-25.431 -1.551)" fill="#616161"/>
    <path id="Trazado_87" data-name="Trazado 87" d="M102.647,8.182V0h1.07V8.182h16.869V9.266H103.718V19.68h-1.07V9.266H97.828V8.182Z" transform="translate(-31.044 0)" fill="#616161"/>
    <path id="Trazado_88" data-name="Trazado 88" d="M119.512,18.042a6.326,6.326,0,0,1-4.641-1.931,6.325,6.325,0,0,1-1.931-4.64,6.333,6.333,0,0,1,1.931-4.661,6.582,6.582,0,0,1,9.3,0,5.556,5.556,0,0,1,1.693,4.051H114.119a4.378,4.378,0,0,0-.04.61,5.433,5.433,0,0,0,9.281,3.821q.271-.271.515-.569l1.152.406a5.725,5.725,0,0,1-.853.976,6.324,6.324,0,0,1-4.661,1.938m-5.19-8.279h10.324a5.109,5.109,0,0,0-1.287-2.141,5.43,5.43,0,0,0-7.7,0,5.525,5.525,0,0,0-1.341,2.141" transform="translate(-35.84 -1.551)" fill="#616161"/>
    <path id="Trazado_89" data-name="Trazado 89" d="M138.574,7.163A4.3,4.3,0,0,0,136.311,8.8a3.988,3.988,0,0,0-1.111,2.6V18.15h-1.083V6.39H135.2V8.937A4.681,4.681,0,0,1,137.978,6.3Z" transform="translate(-42.559 -1.998)" fill="#616161"/>
    <path id="Trazado_90" data-name="Trazado 90" d="M155.923,17.7h-1.084v-2.4a8.088,8.088,0,0,1-.678.8,6.557,6.557,0,0,1-9.3.008,6.328,6.328,0,0,1-1.931-4.641A6.335,6.335,0,0,1,144.86,6.81a6.581,6.581,0,0,1,9.3,0,8.018,8.018,0,0,1,.678.8V5.943h1.084Zm-1.084-5.175V10.4A5.457,5.457,0,0,0,149.5,6.025a5.223,5.223,0,0,0-3.841,1.6,5.258,5.258,0,0,0-1.592,3.848,5.441,5.441,0,0,0,10.771,1.057" transform="translate(-45.356 -1.551)" fill="#616161"/>
    <path id="Trazado_91" data-name="Trazado 91" d="M49.961,6.7a4.573,4.573,0,0,0-3.329-1.3v0H46.6v0A4.508,4.508,0,0,0,41.94,9.986v7.872h1.071V10.094a3.444,3.444,0,0,1,1.083-2.56,3.553,3.553,0,0,1,5.046,0,3.442,3.442,0,0,1,1.084,2.56v7.764H51.3V9.986A4.55,4.55,0,0,0,49.961,6.7" transform="translate(-13.309 -1.712)" fill="#616161"/>
    <rect id="Rect치ngulo_528" data-name="Rect치ngulo 528" width="6.444" height="1.074" transform="translate(37.083 8.21)" fill="#616161"/>
    <path id="Trazado_92" data-name="Trazado 92" d="M143.3,6.068A6.542,6.542,0,0,0,135.59,7.9a6.28,6.28,0,0,0-1.476,4.209l1.1-.066a5.359,5.359,0,0,1,1.262-3.419,5.219,5.219,0,0,1,3.656-1.954,5.427,5.427,0,0,1,2.124.2Z" transform="translate(-42.558 -1.747)" fill="#616161"/>
    <path id="Trazado_93" data-name="Trazado 93" d="M170.633,20.682a2.76,2.76,0,0,1-3.9-3.908,2.758,2.758,0,0,1,4.708,1.948,2.678,2.678,0,0,1-.809,1.959M167,17.045a2.406,2.406,0,0,0,0,3.374,2.369,2.369,0,0,0,3.362,0,2.4,2.4,0,0,0,0-3.374,2.365,2.365,0,0,0-3.359,0m1.625.155a2.324,2.324,0,0,1,.827.108.755.755,0,0,1,.47.769.665.665,0,0,1-.295.6,1.163,1.163,0,0,1-.438.147.728.728,0,0,1,.52.3.833.833,0,0,1,.164.47v.221c0,.07,0,.145.009.226a.441.441,0,0,0,.025.157l.019.038h-.5l-.007-.03c0-.009,0-.022-.009-.034l-.01-.1v-.24a.736.736,0,0,0-.287-.692,1.274,1.274,0,0,0-.593-.1H168.1V20.23h-.535V17.2Zm.576.477a1.381,1.381,0,0,0-.646-.113H168.1v1.1h.483a1.43,1.43,0,0,0,.509-.069.545.545,0,0,0,.111-.917" transform="translate(-52.653 -5.068)" fill="#616161"/>
  </g>
</svg>
